<?xml version="1.0" standalone="no"?>
<svg xmlns:xlink="http://www.w3.org/1999/xlink" xmlns="http://www.w3.org/2000/svg" viewBox="0 0 16 16" class="styled__StyledSvg-sc-nvv7q3-0 ckBMae"><path fill-rule="evenodd" clip-rule="evenodd" d="M8.66665 0.333344H7.33331V1.69959C3.96443 2.03408 1.33331 4.87644 1.33331 8.33334C1.33331 12.0152 4.31808 15 7.99998 15C11.6819 15 14.6666 12.0152 14.6666 8.33334C14.6666 4.87644 12.0355 2.03408 8.66665 1.69959V0.333344ZM7.99998 13.6667C10.9455 13.6667 13.3333 11.2789 13.3333 8.33334C13.3333 5.38782 10.9455 3.00001 7.99998 3.00001C5.05446 3.00001 2.66665 5.38782 2.66665 8.33334C2.66665 11.2789 5.05446 13.6667 7.99998 13.6667ZM7.33331 5.00001V8.33334V9.66668H8.66665H11.3333V8.33334H8.66665V5.00001H7.33331Z"/></svg>