<?xml version="1.0" encoding="UTF-8" standalone="no"?><!DOCTYPE svg PUBLIC "-//W3C//DTD SVG 1.1//EN" "http://www.w3.org/Graphics/SVG/1.1/DTD/svg11.dtd"><svg width="100%" height="100%" viewBox="0 0 417 417" version="1.1" xmlns="http://www.w3.org/2000/svg" xmlns:xlink="http://www.w3.org/1999/xlink" xml:space="preserve" xmlns:serif="http://www.serif.com/" style="fill-rule:evenodd;clip-rule:evenodd;stroke-linejoin:round;stroke-miterlimit:2;"><g><path d="M328.063,140.632c-5.201,-3.927 -12.572,-3.062 -16.723,1.963l-44.265,53.282c-17.159,-59.314 -80.311,-58.527 -107.038,-28.418c-0.474,0.555 -78.255,94.509 -78.255,94.509c-3.988,4.823 -3.674,11.884 0.736,16.328c5.068,5.116 13.45,4.733 18.032,-0.821c0,-0 63.957,-78.177 73.521,-89.218c9.565,-11.04 17.564,-17.15 32.106,-17.15c22.132,0 38.62,18.011 38.62,38.619c-0,20.18 -16.41,38.62 -38.62,38.62c-18.695,0 -30.036,-13.527 -31.331,-14.749c-4.887,-4.591 -12.164,-4.027 -16.354,0.121c-3.95,3.911 -4.827,10.558 -0.822,15.605c2.427,3.059 18.983,22.95 49.32,22.95c22.774,-0 40.371,-13.339 53.39,-28.982c16.345,-19.641 69.727,-85.19 69.727,-85.19c4.419,-5.336 3.49,-13.291 -2.044,-17.469Z" style="fill:#fff;fill-rule:nonzero;"/></g></svg>